Coordinates
version=1
nRows=11
nColumns=32
inDegrees=yes

Units are S.I. units (second, meters, Newtons, ...)
If the header above contains a line with 'inDegrees', this indicates whether rotational values are in degrees (yes) or radians (no).

endheader
time	pelvis_tilt	pelvis_list	pelvis_rotation	pelvis_tx	pelvis_ty	pelvis_tz	hip_flexion_r	hip_adduction_r	hip_rotation_r	knee_angle_r	knee_adduction_r	med_cond_adduction_r	lat_cond_adduction_r	patella_r_constrained_knee_angle	hip_flexion_l	hip_adduction_l	hip_rotation_l	knee_angle_l	knee_adduction_l	med_cond_adduction_l	lat_cond_adduction_l	patella_l_constrained_knee_angle	lumbar_extension	lumbar_bending	lumbar_rotation	ankle_angle_r	subtalar_angle_r	mtp_angle_r	ankle_angle_l	subtalar_angle_l	mtp_angle_l
      1.95000000	    -14.52871742	     -0.02419857	    -11.10007588	     -0.42574325	      0.67677539	     -0.41216333	      4.25776315	      2.05334800	      3.40001364	    -23.30668198	     -5.76957084	      0.00000000	      0.00000000	     -0.40677834	     47.21159056	     -4.30112475	     -2.91173414	    -17.20546150	     -5.33206159	      0.00000000	      0.00000000	     -0.30029195	     -0.94948278	      7.43191271	      9.38709492	      8.85940913	     14.00201041	      0.00000000	     -0.33380087	      1.57134127	      0.00000000
      1.95500000	    -14.39319634	      0.13579661	    -11.21421628	     -0.41781310	      0.67594486	     -0.41227118	      4.28703554	      1.71092702	      3.35331312	    -24.79184073	     -5.65427618	      0.00000000	      0.00000000	     -0.43269925	     47.04087953	     -4.04340670	     -3.20227225	    -17.87295129	     -5.15470268	      0.00000000	      0.00000000	     -0.31194185	     -0.87777414	      7.02090893	      9.40110158	      7.87436752	     14.01688033	     -0.00000000	     -0.89412843	      2.31069726	     -0.00000000
      1.96000000	    -14.20603041	      0.32301406	    -11.31967211	     -0.40989358	      0.67516166	     -0.41240764	      4.39460355	      1.31849046	      3.30698686	    -26.48335783	     -5.49789983	     -0.00000000	     -0.00000000	     -0.46222179	     46.81192061	     -3.73363782	     -3.47393040	    -18.59396613	     -4.98969031	     -0.00000000	     -0.00000000	     -0.32452593	     -0.85580878	      6.52976826	      9.56444646	      7.34507508	     13.47120050	      0.00000000	     -1.28354926	      2.86291584	      0.00000000
      1.96500000	    -14.05757733	      0.52317684	    -11.40972540	     -0.40204628	      0.67435453	     -0.41253529	      4.70166261	      0.91752267	      3.26321963	    -28.41664284	     -5.28960920	      0.00000000	      0.00000000	     -0.49596398	     46.64048617	     -3.41565850	     -3.70197243	    -19.37822478	     -4.81831023	     -0.00000000	      0.00000000	     -0.33821383	     -0.83678488	      6.07367627	      9.49263693	      6.19346435	     13.47476208	      0.00000000	     -2.05226145	      3.53191265	      0.00000000
      1.97000000	    -13.93053999	      0.73066858	    -11.48526238	     -0.39424405	      0.67354033	     -0.41266918	      5.14192158	      0.52537822	      3.26229262	    -30.49336593	     -5.07065815	     -0.00000000	     -0.00000000	     -0.53220964	     46.52893168	     -3.06677972	     -3.84478952	    -20.24613359	     -4.69204402	      0.00000000	      0.00000000	     -0.35336169	     -0.70724438	      5.49749129	      9.52623868	      5.14258981	     12.85066739	      0.00000000	     -2.71934060	      3.90848757	      0.00000000
      1.97500000	    -13.82654570	      1.02428882	    -11.56317194	     -0.38646426	      0.67277776	     -0.41279860	      5.75840834	      0.00239524	      3.37474918	    -32.77380300	     -4.65616756	     -0.00000000	     -0.00000000	     -0.57201077	     46.44686551	     -2.65650655	     -4.00924343	    -21.12042719	     -4.57888660	     -0.00000000	     -0.00000000	     -0.36862099	     -0.57088264	      4.94286547	      9.36597560	      3.02944553	     13.73857166	     -0.00000000	     -4.01181829	      4.78745575	     -0.00000000
      1.98000000	    -13.66644719	      1.27989325	    -11.58370548	     -0.37882793	      0.67207751	     -0.41293997	      6.41064265	     -0.43871678	      3.42114099	    -35.18490632	     -4.33539748	     -0.00000000	     -0.00000000	     -0.61409246	     46.32364373	     -2.21687058	     -3.89459208	    -22.04377635	     -4.47023871	      0.00000000	      0.00000000	     -0.38473648	     -0.52015714	      4.30887930	      9.36352966	      2.12725411	     12.77304005	     -0.00000000	     -4.41179272	      4.69927581	      0.00000000
      1.98500000	    -13.59205928	      1.60845651	    -11.62577371	     -0.37127602	      0.67137394	     -0.41311572	      7.28844975	     -0.99906615	      3.63349040	    -37.70315005	     -3.80064043	      0.00000000	      0.00000000	     -0.65804411	     46.33387823	     -1.74805957	     -3.72805299	    -23.04604654	     -4.36651238	      0.00000000	      0.00000000	     -0.40222939	     -0.36347020	      3.69143299	      9.20710996	      0.14471122	     13.31404067	      0.00000000	     -5.22615097	      4.78170599	     -0.00000000
      1.99000000	    -13.42395557	      1.95521705	    -11.61966318	     -0.36383861	      0.67081035	     -0.41328307	      8.14352224	     -1.57188403	      3.80906906	    -40.27896926	     -3.30783780	      0.00000000	      0.00000000	     -0.70300063	     46.26580233	     -1.20514571	     -3.41281170	    -24.09205948	     -4.29212880	     -0.00000000	     -0.00000000	     -0.42048576	     -0.37816423	      2.95814887	      9.05923426	     -0.98733776	     12.34228479	      0.00000000	     -5.48222894	      4.27261716	     -0.00000000
      1.99500000	    -13.30803904	      2.32642178	    -11.61232062	     -0.35652423	      0.67028483	     -0.41342390	      9.15624304	     -2.15753423	      4.07334377	    -42.92686136	     -2.73012364	      0.00000000	      0.00000000	     -0.74921507	     46.27003736	     -0.68021825	     -2.92772486	    -25.19883301	     -4.15201091	      0.00000000	      0.00000000	     -0.43980260	     -0.32040485	      2.20663576	      8.88471677	     -2.42538472	     11.97497680	     -0.00000000	     -5.65871886	      3.63669530	     -0.00000000
      2.00000000	    -13.19244157	      2.70674139	    -11.55982645	     -0.34935252	      0.66983548	     -0.41357461	     10.24715646	     -2.74864488	      4.31320853	    -45.61095927	     -2.14798289	      0.00000000	      0.00000000	     -0.79606141	     46.29130564	     -0.14286842	     -2.24132275	    -26.36876344	     -3.92231961	      0.00000000	      0.00000000	     -0.46022174	     -0.28107184	      1.44932935	      8.62199502	     -3.79458352	     11.53872726	     -0.00000000	     -5.58190277	      2.65184925	     -0.00000000
